<svg id="bdffa498-f2c0-4bfd-9fac-4ceaa98cb42b" data-name="Calque 1" xmlns="http://www.w3.org/2000/svg" xmlns:xlink="http://www.w3.org/1999/xlink" viewBox="0 0 139.31 67.46"><defs><style>.f2f991ec-5a1a-4ad7-b786-39e7afd5c524{fill:url(#ffb7650f-9c6d-4cb4-8422-8c8f4429741f);}.b9cca058-f28e-4f22-bddf-6fc148c55826{fill:#fff;}.afac755a-55ed-49b4-a195-9c0221dfb5c2{fill:#1d1d1b;}.ffde63eb-74b3-439c-9c53-4562dd7b441b{fill:none;stroke-miterlimit:10;stroke-width:2px;stroke:url(#a0ab53d3-0097-4a17-96a0-66ee8288222c);}</style><linearGradient id="ffb7650f-9c6d-4cb4-8422-8c8f4429741f" y1="23.15" x2="139.31" y2="23.15" gradientUnits="userSpaceOnUse"><stop offset="0" stop-color="#e50048"/><stop offset="0.02" stop-color="#e70f42"/><stop offset="0.07" stop-color="#eb3732"/><stop offset="0.13" stop-color="#f37619"/><stop offset="0.18" stop-color="#fab600"/><stop offset="0.25" stop-color="#fdcb00"/><stop offset="0.32" stop-color="#fed800"/><stop offset="0.39" stop-color="#fd0"/><stop offset="0.58" stop-color="#00a86c"/><stop offset="0.77" stop-color="#0089d0"/><stop offset="1" stop-color="#a81a81"/></linearGradient><radialGradient id="a0ab53d3-0097-4a17-96a0-66ee8288222c" cx="209.35" cy="333.91" r="47.46" gradientTransform="translate(-136.19 -267.45) scale(0.99 1)" gradientUnits="userSpaceOnUse"><stop offset="0.12" stop-color="#fff"/><stop offset="0.19" stop-color="#faf0f6"/><stop offset="0.32" stop-color="#ecc8df"/><stop offset="0.46" stop-color="#dc98c2"/><stop offset="0.83" stop-color="#81ceeb"/></radialGradient></defs><rect class="f2f991ec-5a1a-4ad7-b786-39e7afd5c524" width="139.31" height="46.3"/><path class="b9cca058-f28e-4f22-bddf-6fc148c55826" d="M179.47,305.57c0,.87-.48,1.3-1.44,1.3h-1a1.27,1.27,0,0,1-1.3-.82l-3.89-9H157l-4,9.07a1.4,1.4,0,0,1-1.2.77h-1.1c-.9,0-1.35-.43-1.35-1.3a1.5,1.5,0,0,1,.2-.62l-.05.05,13.29-29.86a1.44,1.44,0,0,1,1.25-.82h1.2a1.25,1.25,0,0,1,1.25.82L179.27,305A1.5,1.5,0,0,1,179.47,305.57Zm-9.07-12.05-5.81-13.29-6,13.29Z" transform="translate(-138.49 -267.45)"/><path class="b9cca058-f28e-4f22-bddf-6fc148c55826" d="M224.2,290.64q0,7.78-4.75,12.15-4.47,4.08-12.14,4.08h-9.6a1.4,1.4,0,0,1-1.35-1.35V275.67a1.31,1.31,0,0,1,.41-.94,1.29,1.29,0,0,1,.94-.41h11.23q7.34,0,11.47,4.47Q224.21,282.92,224.2,290.64Zm-3.55,0q0-12.76-11.76-12.76H200v25.44h7.39q9.84,0,12.44-7.16A16.36,16.36,0,0,0,220.65,290.64Z" transform="translate(-138.49 -267.45)"/><path class="b9cca058-f28e-4f22-bddf-6fc148c55826" d="M270,305.52a1.34,1.34,0,0,1-.38.94,1.23,1.23,0,0,1-.91.41h-1.4a1.11,1.11,0,0,1-1.05-.58v0l-19.83-25.78v25a1.28,1.28,0,0,1-.4.94,1.32,1.32,0,0,1-.94.41h-.91a1.31,1.31,0,0,1-.94-.41,1.29,1.29,0,0,1-.41-.94V275.67a1.4,1.4,0,0,1,1.35-1.35h1.34a1.65,1.65,0,0,1,1.06.58v0q3.84,5.14,11.13,14.45l4.9,6.24q2.16,2.79,3.84,5V275.67a1.19,1.19,0,0,1,1.34-1.35h.92a1.23,1.23,0,0,1,.91.41,1.36,1.36,0,0,1,.38.94Z" transform="translate(-138.49 -267.45)"/><path class="afac755a-55ed-49b4-a195-9c0221dfb5c2" d="M152.23,330l-1.43-4.47h-5.17L144.18,330h-1.05l4.71-14.23h.86L153.21,330Zm-3.95-12.41L146,324.5h4.49Z" transform="translate(-138.49 -267.45)"/><path class="afac755a-55ed-49b4-a195-9c0221dfb5c2" d="M159.07,330v-1.13a2.88,2.88,0,0,1-2.54,1.34,2.75,2.75,0,0,1-2.48-1.21,4.78,4.78,0,0,1-.65-2.61v-6.65h.93v6.63a3.52,3.52,0,0,0,.48,1.95,1.88,1.88,0,0,0,1.72.91,2.16,2.16,0,0,0,2.06-1.35,6.13,6.13,0,0,0,.48-2.6v-5.54H160V330Z" transform="translate(-138.49 -267.45)"/><path class="afac755a-55ed-49b4-a195-9c0221dfb5c2" d="M161,324.65v-.42h4.41v.42Z" transform="translate(-138.49 -267.45)"/><path class="afac755a-55ed-49b4-a195-9c0221dfb5c2" d="M174.21,327.69a4.9,4.9,0,0,1-4.43,2.29h-3.55V315.75h4.1a4.31,4.31,0,0,1,4.11,2.43,10.16,10.16,0,0,1,.95,4.71A8.8,8.8,0,0,1,174.21,327.69Zm-3.88-11h-3.15V329h2.64a4,4,0,0,0,3.68-1.94,8,8,0,0,0,.94-4.17Q174.44,316.72,170.33,316.73Z" transform="translate(-138.49 -267.45)"/><path class="afac755a-55ed-49b4-a195-9c0221dfb5c2" d="M176.69,325.24q.15,4,2.86,4c1.35,0,2.26-.84,2.71-2.5h.94a4.73,4.73,0,0,1-1.22,2.56,3.42,3.42,0,0,1-2.45.92,3.23,3.23,0,0,1-3.07-1.86,7.62,7.62,0,0,1-.69-3.47,7.19,7.19,0,0,1,.84-3.59,3.26,3.26,0,0,1,3-1.81,3.3,3.3,0,0,1,3,1.68,6.45,6.45,0,0,1,.8,3.32v.74Zm5.1-3.43a2.48,2.48,0,0,0-4.36-.08,5.5,5.5,0,0,0-.72,2.52h5.69A5.52,5.52,0,0,0,181.79,321.81Z" transform="translate(-138.49 -267.45)"/><path class="afac755a-55ed-49b4-a195-9c0221dfb5c2" d="M184,330V315.75h.92V330Z" transform="translate(-138.49 -267.45)"/><path class="afac755a-55ed-49b4-a195-9c0221dfb5c2" d="M192.12,330v-1.53a3.15,3.15,0,0,1-2.89,1.76,3.19,3.19,0,0,1-3-1.93,8.62,8.62,0,0,1,0-7,3.23,3.23,0,0,1,3-1.93,3.05,3.05,0,0,1,2.83,1.66v-1.62h.93V330Zm-.6-8.19a2.47,2.47,0,0,0-2.31-1.47,2.36,2.36,0,0,0-2.19,1.6,6.7,6.7,0,0,0-.59,2.88,6.59,6.59,0,0,0,.57,2.87,2.36,2.36,0,0,0,2.21,1.56,2.47,2.47,0,0,0,2.24-1.51,6.11,6.11,0,0,0,.67-2.92A6.87,6.87,0,0,0,191.52,321.79Zm-1.22-2.56a.47.47,0,0,1-.32.13.55.55,0,0,1-.4-.21l-1.68-2.46a.5.5,0,0,1,0-.67.39.39,0,0,1,.29-.17c.2,0,.47.25.82.74l1.3,2A.49.49,0,0,1,190.3,319.23Z" transform="translate(-138.49 -267.45)"/><path class="afac755a-55ed-49b4-a195-9c0221dfb5c2" d="M205.44,330v-1.53a3.27,3.27,0,0,1-5.88-.17,7.61,7.61,0,0,1-.74-3.48,7.75,7.75,0,0,1,.76-3.53,3.23,3.23,0,0,1,3-1.93,3.08,3.08,0,0,1,2.84,1.63v-5.22h.92V330Zm-.61-8.19a2.45,2.45,0,0,0-2.31-1.47,2.34,2.34,0,0,0-2.18,1.6,6.56,6.56,0,0,0-.59,2.88,6.74,6.74,0,0,0,.56,2.87,2.36,2.36,0,0,0,2.21,1.56,2.49,2.49,0,0,0,2.25-1.51,6.31,6.31,0,0,0,.67-2.92A6.87,6.87,0,0,0,204.83,321.79Z" transform="translate(-138.49 -267.45)"/><path class="afac755a-55ed-49b4-a195-9c0221dfb5c2" d="M208,325.24q.15,4,2.86,4c1.35,0,2.26-.84,2.71-2.5h.94a4.73,4.73,0,0,1-1.22,2.56,3.42,3.42,0,0,1-2.45.92,3.23,3.23,0,0,1-3.07-1.86,7.62,7.62,0,0,1-.69-3.47,7.19,7.19,0,0,1,.84-3.59,3.26,3.26,0,0,1,3-1.81,3.3,3.3,0,0,1,3,1.68,6.45,6.45,0,0,1,.8,3.32v.74Zm5.1-3.43a2.4,2.4,0,0,0-2.2-1.34,2.43,2.43,0,0,0-2.17,1.26,5.63,5.63,0,0,0-.71,2.52h5.69A5.52,5.52,0,0,0,213.1,321.81Z" transform="translate(-138.49 -267.45)"/><path class="afac755a-55ed-49b4-a195-9c0221dfb5c2" d="M220.62,329.46a3,3,0,0,1-2.24.8q-3.37,0-3.37-4.2h1c0,2.11.81,3.17,2.42,3.17,1.37,0,2-.65,2-2a1.76,1.76,0,0,0-1.4-1.74q-.09,0-1.47-.33a2.56,2.56,0,0,1-2.27-2.73,3.12,3.12,0,0,1,.71-2.08,2.63,2.63,0,0,1,2.1-.93q3.25,0,3.26,3.74h-1c0-1.81-.73-2.71-2.2-2.71a1.85,1.85,0,0,0-1.41.56,2,2,0,0,0-.53,1.42,1.57,1.57,0,0,0,1.39,1.61,14.31,14.31,0,0,1,2.58.84,2.53,2.53,0,0,1,1.18,2.35A3,3,0,0,1,220.62,329.46Z" transform="translate(-138.49 -267.45)"/><path class="afac755a-55ed-49b4-a195-9c0221dfb5c2" d="M235.57,330l-7-12.32V330h-.95V315.75h1q1.23,2.28,3.51,6.17c1.7,2.9,2.88,4.93,3.52,6.09V315.75h.95V330Z" transform="translate(-138.49 -267.45)"/><path class="afac755a-55ed-49b4-a195-9c0221dfb5c2" d="M241.05,330.21a3.35,3.35,0,0,1-3.08-1.86,7.25,7.25,0,0,1-.8-3.49,7.07,7.07,0,0,1,.86-3.61,3.36,3.36,0,0,1,3.07-1.77,3.3,3.3,0,0,1,3.08,1.89,7.06,7.06,0,0,1,.8,3.49,7,7,0,0,1-.86,3.59A3.35,3.35,0,0,1,241.05,330.21Zm2.36-8.29a2.5,2.5,0,0,0-2.33-1.45,2.53,2.53,0,0,0-2.36,1.49,6.35,6.35,0,0,0-.61,2.9,6,6,0,0,0,.63,2.86,2.57,2.57,0,0,0,4.67,0,6.12,6.12,0,0,0,.63-2.88A6.26,6.26,0,0,0,243.41,321.92Z" transform="translate(-138.49 -267.45)"/><path class="afac755a-55ed-49b4-a195-9c0221dfb5c2" d="M247.06,322.42a10.06,10.06,0,0,0-.52,3.45V330h-.93V319.71h.93v1.47a3.38,3.38,0,0,1,3.12-1.7v1A2.64,2.64,0,0,0,247.06,322.42Z" transform="translate(-138.49 -267.45)"/><path class="afac755a-55ed-49b4-a195-9c0221dfb5c2" d="M260.27,330v-6.7c0-1.87-.61-2.81-1.83-2.81a1.87,1.87,0,0,0-1.72,1,4,4,0,0,0-.5,2.06V330h-.93v-6.7c0-1.87-.62-2.81-1.87-2.81a1.92,1.92,0,0,0-1.76,1.37,6.17,6.17,0,0,0-.44,2.39V330h-.93V319.71h.93v1.08a2.68,2.68,0,0,1,2.35-1.31,2.37,2.37,0,0,1,2.31,1.62,2.64,2.64,0,0,1,2.54-1.62q2.79,0,2.79,3.62V330Z" transform="translate(-138.49 -267.45)"/><path class="afac755a-55ed-49b4-a195-9c0221dfb5c2" d="M262.75,325.24c.09,2.66,1.05,4,2.85,4,1.36,0,2.26-.84,2.71-2.5h.95a4.8,4.8,0,0,1-1.22,2.56,3.45,3.45,0,0,1-2.46.92,3.21,3.21,0,0,1-3.06-1.86,7.49,7.49,0,0,1-.7-3.47,7.19,7.19,0,0,1,.84-3.59,3.46,3.46,0,0,1,6-.13,6.45,6.45,0,0,1,.8,3.32v.74Zm5.1-3.43a2.49,2.49,0,0,0-4.37-.08,5.63,5.63,0,0,0-.71,2.52h5.69A5.66,5.66,0,0,0,267.85,321.81Z" transform="translate(-138.49 -267.45)"/><path class="afac755a-55ed-49b4-a195-9c0221dfb5c2" d="M275.37,329.46a3,3,0,0,1-2.25.8q-3.36,0-3.36-4.2h1c0,2.11.8,3.17,2.41,3.17,1.37,0,2.06-.65,2.06-2a1.76,1.76,0,0,0-1.41-1.74q-.07,0-1.47-.33a2.56,2.56,0,0,1-2.27-2.73,3.08,3.08,0,0,1,.72-2.08,2.63,2.63,0,0,1,2.1-.93q3.25,0,3.25,3.74h-1c0-1.81-.74-2.71-2.21-2.71a1.84,1.84,0,0,0-1.4.56,2,2,0,0,0-.53,1.42,1.56,1.56,0,0,0,1.39,1.61,15,15,0,0,1,2.58.84,2.55,2.55,0,0,1,1.18,2.35A3,3,0,0,1,275.37,329.46Z" transform="translate(-138.49 -267.45)"/><line class="ffde63eb-74b3-439c-9c53-4562dd7b441b" x1="4.58" y1="66.46" x2="137.42" y2="66.46"/></svg>